<?xml version="1.0" encoding="UTF-8" standalone="no"?>
<!DOCTYPE svg PUBLIC "-//W3C//DTD SVG 1.1//EN" "http://www.w3.org/Graphics/SVG/1.1/DTD/svg11.dtd">
<svg width="100%" height="100%" viewBox="0 0 3006 2500" version="1.1" xmlns="http://www.w3.org/2000/svg" xmlns:xlink="http://www.w3.org/1999/xlink" xml:space="preserve" xmlns:serif="http://www.serif.com/" style="fill-rule:evenodd;clip-rule:evenodd;stroke-linejoin:round;stroke-miterlimit:2;">
    <g transform="matrix(-1,0,0,1,3182.81,0)">
        <path d="M2089.45,1033.13L1857.31,1033.13L1889.79,770.539L2154.64,770.539L2089.45,1033.13ZM1992.62,1423.22L1809.07,1423.22L1841.27,1162.82L2057.26,1162.82L1992.62,1423.22ZM1726.65,1033.13L1511.62,1033.13L1510.75,770.539L1759.13,770.539L1726.65,1033.13ZM1678.41,1423.22L1512.91,1423.22L1512.05,1162.82L1710.61,1162.82L1678.41,1423.22ZM1205.08,1423.22L1175.82,1162.82L1382.39,1162.82L1383.25,1423.22L1205.08,1423.22ZM1131.74,770.539L1381.09,770.539L1381.96,1033.13L1161.24,1033.13L1131.74,770.539ZM901.616,1423.22L840.382,1162.82L1045.32,1162.82L1074.58,1423.22L901.616,1423.22ZM748.136,770.539L1001.25,770.539L1030.75,1033.13L809.884,1033.13L748.136,770.539ZM2616.57,382.401L2301.82,382.401C2270.75,382.401 2244.83,404.229 2238.44,433.367C2238.24,434.079 2237.98,434.761 2237.81,435.484L2185.82,644.919L667.299,644.919C627.323,644.919 594.926,673.049 594.926,707.729C594.926,710.099 595.108,712.431 595.402,714.732C595.389,720.198 595.929,725.745 597.238,731.304L777.72,1498.86C785.914,1533.65 818.188,1556.3 852.206,1552.8L852.206,1552.88L1960.43,1552.88L1908.92,1760.42L861.951,1760.42C833.588,1760.42 810.567,1788.56 810.567,1823.25C810.567,1857.92 833.588,1886.05 861.951,1886.05L992.584,1886.05C952.566,1906.15 925.036,1947.47 925.036,1995.29C925.036,2062.86 979.788,2117.6 1047.32,2117.6C1114.86,2117.6 1169.61,2062.86 1169.61,1995.29C1169.61,1947.47 1142.09,1906.15 1102.06,1886.05L1786.72,1886.05C1746.7,1906.15 1719.17,1947.47 1719.17,1995.29C1719.17,2062.86 1773.92,2117.6 1841.45,2117.6C1909.01,2117.6 1963.75,2062.86 1963.75,1995.29C1963.75,1947.47 1936.22,1906.15 1896.2,1886.05L1967.04,1886.05C1985.26,1886.05 2001.16,1874.38 2010.28,1856.92C2014.46,1850.62 2017.72,1843.52 2019.66,1835.71L2348.2,512.235L2616.57,512.235C2652.44,512.235 2681.5,483.148 2681.5,447.313C2681.5,411.465 2652.44,382.401 2616.57,382.401Z" style="fill:white;fill-rule:nonzero;"/>
    </g>
</svg>
